<?xml version="1.0" encoding="UTF-8"?>
<svg width="120" height="120" viewBox="0 0 120 120" fill="none" xmlns="http://www.w3.org/2000/svg">
  <g>
    <path d="M116.5 23.5L66.5 109.5C65.5 111.167 63.5 111.167 62.5 109.5L12.5 23.5C11.5 21.8333 12.8333 19.5 14.8333 19.5H114.167C116.167 19.5 117.5 21.8333 116.5 23.5Z" fill="url(#paint0_linear)"/>
    <path d="M60 13C61.1046 13 62 13.8954 62 15V105C62 106.105 61.1046 107 60 107C58.8954 107 58 106.105 58 105V15C58 13.8954 58.8954 13 60 13Z" fill="#fff"/>
    <path d="M60 13C61.1046 13 62 13.8954 62 15V105C62 106.105 61.1046 107 60 107C58.8954 107 58 106.105 58 105V15C58 13.8954 58.8954 13 60 13Z" fill="url(#paint1_linear)" fill-opacity="0.2"/>
  </g>
  <defs>
    <linearGradient id="paint0_linear" x1="60" y1="19.5" x2="60" y2="109.5" gradientUnits="userSpaceOnUse">
      <stop stop-color="#41D1FF"/>
      <stop offset="1" stop-color="#BD34FE"/>
    </linearGradient>
    <linearGradient id="paint1_linear" x1="60" y1="13" x2="60" y2="107" gradientUnits="userSpaceOnUse">
      <stop stop-color="#fff"/>
      <stop offset="1" stop-color="#fff" stop-opacity="0"/>
    </linearGradient>
  </defs>
</svg>
